<svg width="168" height="151" viewBox="0 0 168 151" fill="none" xmlns="http://www.w3.org/2000/svg">
<g clip-path="url(#clip0_340_50)">
<path d="M122.31 90.8861C133.387 78.7869 137.034 58.8406 132.521 42.1895" stroke="black" stroke-width="1.5" stroke-miterlimit="10" stroke-linecap="round" stroke-linejoin="round"/>
<path d="M116.412 96.0546C118.567 94.5641 120.534 92.826 122.31 90.8861" stroke="black" stroke-width="1.5" stroke-miterlimit="10" stroke-linecap="round" stroke-linejoin="round"/>
<path d="M60.347 57.5334C57.8005 79.6563 66.8408 102.016 92.4132 102.203C96.824 102.235 103.522 101.697 108.133 100.178C111.144 99.187 113.905 97.7883 116.412 96.0546" stroke="black" stroke-width="1.5" stroke-miterlimit="10" stroke-linecap="round" stroke-linejoin="round"/>
<path d="M69.8169 35.99C62.2114 35.5964 56.5196 50.1108 55.6511 55.511C53.4387 69.2703 66.1478 75.4489 78.3591 73.2396C81.7243 72.6309 84.287 71.5431 87.0931 69.4158C107.39 54.0286 71.7067 24.1009 62.2114 40.7647" stroke="black" stroke-width="1.5" stroke-miterlimit="10" stroke-linecap="round" stroke-linejoin="round"/>
<path d="M94.9536 58.2921C95.4734 58.1591 97.0553 57.8565 96.5256 57.9443C95.2413 58.1574 93.9882 58.539 94.9536 58.2921Z" stroke="black" stroke-width="1.5" stroke-miterlimit="10" stroke-linecap="round" stroke-linejoin="round"/>
<path d="M107.88 42.4753C86.3455 55.4102 99.284 90.1947 127.27 74.2824C152.313 60.043 128.081 30.342 107.88 42.4753Z" stroke="black" stroke-width="1.5" stroke-miterlimit="10" stroke-linecap="round" stroke-linejoin="round"/>
<path d="M69.451 60.7254C68.7711 61.1765 68.7861 62.5083 69.2764 63.1587C69.5341 63.5008 70.2972 60.0937 70.3245 60.0302C70.7572 59.0254 71.462 58.1586 72.0712 57.2491C73.745 54.751 76.8611 52.6966 80.1065 53.7729C82.8116 54.6702 84.0386 57.9517 84.6481 60.3778C84.936 61.5241 86.1864 64.6894 85.3468 63.854C81.8146 60.3393 81.9451 49.9268 73.4686 54.4681C72.6679 54.8973 71.7671 55.3909 71.3725 56.2062C70.2063 58.6167 69.9928 60.366 69.451 60.7254Z" stroke="black" stroke-width="1.5" stroke-miterlimit="10" stroke-linecap="round" stroke-linejoin="round"/>
<path d="M108.055 63.5063C105.127 66.9291 110.194 55.0873 116.09 56.5538C118.497 57.1528 120.694 60.3509 121.331 62.4635C121.754 63.8672 123.77 67.6712 122.728 66.6349C119.985 63.9054 117.493 50.29 111.199 58.9874C109.482 61.3605 108.294 63.2273 108.055 63.5063Z" stroke="black" stroke-width="1.5" stroke-miterlimit="10" stroke-linecap="round" stroke-linejoin="round"/>
<path d="M78.8408 72.8821C80.1638 74.5484 81.7285 75.8574 83.348 77.2283" stroke="black" stroke-width="1.5" stroke-miterlimit="10" stroke-linecap="round" stroke-linejoin="round"/>
<path d="M86.1934 83.1433C91.6925 83.7856 96.8455 81.1558 102.298 81.7928" stroke="black" stroke-width="1.5" stroke-miterlimit="10" stroke-linecap="round" stroke-linejoin="round"/>
<path d="M87.5127 84.4727C90.3556 89.0061 92.5985 94.2087 95.9111 98.382" stroke="black" stroke-width="1.5" stroke-miterlimit="10" stroke-linecap="round" stroke-linejoin="round"/>
<path d="M102.778 82.7303C106.141 88.485 103.369 95.0507 104.153 101.108" stroke="black" stroke-width="1.5" stroke-miterlimit="10" stroke-linecap="round" stroke-linejoin="round"/>
<path d="M145.584 79.9349C140.859 87.5317 137.945 88.4569 133.861 89.9594" stroke="black" stroke-width="1.5" stroke-miterlimit="10" stroke-linecap="round" stroke-linejoin="round"/>
<path d="M135.74 67.0828C136.944 60.5096 146.304 68.3751 147.389 71.0916C148.395 73.61 147.508 76.8405 145.583 79.9349" stroke="black" stroke-width="1.5" stroke-miterlimit="10" stroke-linecap="round" stroke-linejoin="round"/>
<path d="M59.9336 64.5273C47.253 61.4664 54.7925 83.2451 63.9943 84.4727" stroke="black" stroke-width="1.5" stroke-miterlimit="10" stroke-linecap="round" stroke-linejoin="round"/>
<path d="M105.015 0C92.179 3.33618 91.7119 17.1821 91.7119 22.0071C91.7119 33.0498 96.5462 56.2252 108.939 61.5102C112.874 63.1878 109.828 54.4224 109.547 53.3481C108.928 50.9891 106.629 29.2559 108.635 28.2575C109.276 27.939 108.855 29.666 108.939 30.3735C109.095 31.6899 109.297 33.0015 109.547 34.3034C110.206 37.7497 112.025 41.0031 113.8 43.9769C120.083 54.5066 127.884 60.3008 140.231 60.3008" stroke="black" stroke-width="1.5" stroke-miterlimit="10" stroke-linecap="round" stroke-linejoin="round"/>
<path d="M105.016 0C120.096 7.5026 150.139 21.2915 151.492 41.4895C152.086 50.3475 148.243 58.6508 145.492 66.8617" stroke="black" stroke-width="1.5" stroke-miterlimit="10" stroke-linecap="round" stroke-linejoin="round"/>
<path d="M91.7948 18.9342C82.3592 18.3294 68.1963 29.4079 64.8607 40.9966C63.5883 45.4179 61.8568 50.501 60.4736 56.6515" stroke="black" stroke-width="1.5" stroke-miterlimit="10" stroke-linecap="round" stroke-linejoin="round"/>
<path d="M95.0503 5.52394C83.6236 3.24995 46.1084 18.4874 43.2994 30.227C40.2181 43.1039 47.7737 54.7484 55.399 64.2329" stroke="black" stroke-width="1.5" stroke-miterlimit="10" stroke-linecap="round" stroke-linejoin="round"/>
<path d="M94.3506 103.989C99.9264 110.227 101.279 122.335 102.778 132.399" stroke="black" stroke-width="1.5" stroke-miterlimit="10" stroke-linecap="round" stroke-linejoin="round"/>
<path d="M94.3508 104.434C94.3508 101.023 83.5916 109.934 82.8116 110.599C78.6707 114.131 76.2226 120.91 74.0699 125.908C72.9604 128.484 70.5732 133.563 70.5732 133.563C70.5732 133.563 70.904 132.538 71.2724 132.171C73.1998 130.253 74.946 128.247 77.2169 126.604C80.9655 123.891 85.7532 117.696 90.5043 116.514C93.29 115.821 99.3488 124.914 101.372 126.256" stroke="black" stroke-width="1.5" stroke-miterlimit="10" stroke-linecap="round" stroke-linejoin="round"/>
<path d="M115.68 99.8134C115.68 104.763 115.278 107.596 117.524 112.066" stroke="black" stroke-width="1.5" stroke-miterlimit="10" stroke-linecap="round" stroke-linejoin="round"/>
<path d="M115.681 98.382C139.64 103.659 136.163 118.67 131.766 136.172" stroke="black" stroke-width="1.5" stroke-miterlimit="10" stroke-linecap="round" stroke-linejoin="round"/>
<path d="M119.876 107.816C117.855 113.849 115.849 119.894 113.582 125.908C113.362 126.493 112.439 127.206 112.883 127.648C113.295 128.058 113.932 127.068 114.282 126.604C115.856 124.515 117.336 122.908 120.226 122.429C127.996 121.14 131.765 130.138 131.765 138.086" stroke="black" stroke-width="1.5" stroke-miterlimit="10" stroke-linecap="round" stroke-linejoin="round"/>
<path d="M115.331 126.256C113.24 129.377 106.703 131.722 103.093 132.171C102.251 132.276 101.404 131.097 100.645 131.475C100.613 131.491 94.5071 145.24 94.1143 146.1" stroke="black" stroke-width="1.5" stroke-miterlimit="10" stroke-linecap="round" stroke-linejoin="round"/>
<path d="M102.394 139.477C100.681 142.912 103.483 148.444 106.59 142.261C108.897 137.668 105.826 132.593 102.394 139.477Z" stroke="black" stroke-width="1.5" stroke-miterlimit="10" stroke-linecap="round" stroke-linejoin="round"/>
<path d="M137.105 73.3719C137.223 70.6422 137.183 67.8622 137.183 65.0359" stroke="black" stroke-width="1.5" stroke-miterlimit="10" stroke-linecap="round" stroke-linejoin="round"/>
<path d="M133.046 88.8519C136.027 83.9088 136.873 78.7379 137.106 73.3719" stroke="black" stroke-width="1.5" stroke-miterlimit="10" stroke-linecap="round" stroke-linejoin="round"/>
<path d="M130.386 78.2671C128.775 83.8758 126.804 89.5122 124.18 94.7324C124.024 95.0442 121.816 97.2531 121.816 97.3786C121.816 97.8516 123.937 96.9723 124.18 96.7907C127.519 94.2989 130.754 92.6513 133.045 88.8519" stroke="black" stroke-width="1.5" stroke-miterlimit="10" stroke-linecap="round" stroke-linejoin="round"/>
<path d="M131.769 72.265C131.423 74.2307 130.972 76.2252 130.386 78.2671" stroke="black" stroke-width="1.5" stroke-miterlimit="10" stroke-linecap="round" stroke-linejoin="round"/>
<path d="M132.433 67.3789C132.274 68.9946 132.059 70.6196 131.77 72.265" stroke="black" stroke-width="1.5" stroke-miterlimit="10" stroke-linecap="round" stroke-linejoin="round"/>
<path d="M132.75 45.924C132.75 53.4874 133.126 60.3427 132.433 67.3789" stroke="black" stroke-width="1.5" stroke-miterlimit="10" stroke-linecap="round" stroke-linejoin="round"/>
<path d="M137.768 87.9476C135.231 91.7331 135.911 99.1848 137.768 103.248C138.2 104.195 143.046 109.168 142.436 110.079C140.327 113.226 133.122 103.951 133.923 109.532C134.05 110.418 134.537 111.269 135.022 111.991" stroke="black" stroke-width="1.5" stroke-miterlimit="10" stroke-linecap="round" stroke-linejoin="round"/>
<path d="M58.7012 81.4642C62.3018 88.3484 68.0526 94.0466 65.8199 102.768C65.237 105.045 63.6112 107.862 62.1468 109.642C61.5837 110.326 59.4535 110.83 60.1414 111.391C63.2761 113.945 69.9072 102.417 72.4825 103.967C77.9017 107.23 64.3943 114.564 74.2687 112.47C75.2846 112.254 76.3017 112.044 77.3229 111.857C79.5031 111.456 79.1753 111.479 80.9324 110.569" stroke="black" stroke-width="1.5" stroke-miterlimit="10" stroke-linecap="round" stroke-linejoin="round"/>
<path d="M89.8887 88.0566C93.7206 88.4379 100.22 89.0191 103.79 87.243" stroke="black" stroke-width="1.5" stroke-miterlimit="10" stroke-linecap="round" stroke-linejoin="round"/>
<path d="M92.6148 91.8536C92.7103 91.6751 92.9518 91.1194 92.8875 91.3112C92.6559 92.0028 92.212 92.6064 92.6148 91.8536Z" stroke="black" stroke-width="1.5" stroke-miterlimit="10" stroke-linecap="round" stroke-linejoin="round"/>
<path d="M94.2996 88.4612C94.4013 88.3602 92.7859 90.0561 92.8874 89.9551C93.2087 89.6354 94.2616 88.7884 93.9778 89.1415C93.3356 89.9402 93.5274 89.2296 94.2996 88.4612Z" stroke="black" stroke-width="1.5" stroke-miterlimit="10" stroke-linecap="round" stroke-linejoin="round"/>
<path d="M78.8408 115.735C77.9968 117.415 70.0751 119.915 68.1141 121.416C63.5735 124.891 56.8508 141.751 53.2188 146.088" stroke="black" stroke-width="1.5" stroke-miterlimit="10" stroke-linecap="round" stroke-linejoin="round"/>
<path d="M135.588 114.118C151.807 118.153 160.218 129.327 156.846 146.1" stroke="black" stroke-width="1.5" stroke-miterlimit="10" stroke-linecap="round" stroke-linejoin="round"/>
<path d="M32.2722 130.843C32.5902 131.047 32.8815 131.297 33.2255 131.457C33.4102 131.543 32.8854 131.225 32.7587 131.069C32.1683 130.343 32.2606 129.954 31.9812 128.999C31.8298 128.481 31.605 127.981 31.4824 127.457C30.8412 124.709 30.5784 121.9 29.7412 119.186" stroke="black" stroke-width="1.5" stroke-miterlimit="10" stroke-linecap="round" stroke-linejoin="round"/>
<path d="M29.7274 119.186C35.491 113.785 31.5034 107.109 34.4727 100.318C34.9754 99.1684 36.2321 95.4998 35.7362 94.616C34.3487 92.143 29.225 97.4525 28.8669 99.09C28.4006 101.223 26.6195 103.728 26.3564 105.801" stroke="black" stroke-width="1.5" stroke-miterlimit="10" stroke-linecap="round" stroke-linejoin="round"/>
<path d="M26.3564 106.002C25.692 98.8174 26.0032 89.8577 25.8209 82.5404C25.7938 81.4529 25.8496 75.3991 22.8357 76.1754C20.4534 76.7891 21.2808 94.7875 19.6592 95.7996C16.3024 97.8951 16.4543 87.836 16.3447 86.6514" stroke="black" stroke-width="1.5" stroke-miterlimit="10" stroke-linecap="round" stroke-linejoin="round"/>
<path d="M16.3445 87.1569C16.3211 86.4705 16.1546 84.6035 15.853 83.4187C14.9282 79.7846 13.3702 74.9665 10.1429 76.1068C8.9208 76.5386 9.51646 81.2898 9.65296 81.8731C10.5713 85.7974 12.702 91.2221 13.58 97.364" stroke="black" stroke-width="1.5" stroke-miterlimit="10" stroke-linecap="round" stroke-linejoin="round"/>
<path d="M7.31882 79.7793C2.8247 80.1731 7.16757 90.3633 8.12341 93.9761C8.37429 94.9244 9.75946 98.5728 8.20187 98.7361" stroke="black" stroke-width="1.5" stroke-miterlimit="10" stroke-linecap="round" stroke-linejoin="round"/>
<path d="M7.7065 99.8175C6.14013 96.6221 5.31776 89.2577 0.587414 88.5916C-0.0529011 88.5014 0.00230219 89.9835 0.000554878 90.4471C-0.0137167 94.2326 2.15856 99.0111 3.6397 102.414C5.6807 107.104 6.84816 112.688 9.4318 117.072C10.8544 119.485 13.163 120.487 14.9621 122.31C17.8006 125.185 19.5297 131.095 20.2854 135" stroke="black" stroke-width="1.5" stroke-miterlimit="10" stroke-linecap="round" stroke-linejoin="round"/>
<path d="M7.31934 79.7793L8.97042 81.3915" stroke="black" stroke-width="1.5" stroke-miterlimit="10" stroke-linecap="round" stroke-linejoin="round"/>
<path d="M17.6416 138.657C23.9717 137.607 30.8711 134.725 36.8212 132.357C38.3639 131.743 42.4376 130.87 42.0351 128.466C41.7087 126.519 33.2663 127.944 32.5383 129.393" stroke="black" stroke-width="1.5" stroke-miterlimit="10" stroke-linecap="round" stroke-linejoin="round"/>
<path d="M42.4073 130.319C41.769 132.224 41.9617 134.177 42.5934 136.063" stroke="black" stroke-width="1.5" stroke-miterlimit="10" stroke-linecap="round" stroke-linejoin="round"/>
<path d="M18.3862 138.101C16.3424 139.118 19.2269 145.047 20.2853 146.1" stroke="black" stroke-width="1.5" stroke-miterlimit="10" stroke-linecap="round" stroke-linejoin="round"/>
<path d="M19.6265 135.099C18.6857 136.035 17.446 137.521 17.0322 138.756" stroke="black" stroke-width="1.5" stroke-miterlimit="10" stroke-linecap="round" stroke-linejoin="round"/>
<path d="M95.1577 88.5134C93.9934 89.6722 93.7758 91.104 93.0693 92.5096" stroke="black" stroke-width="1.5" stroke-miterlimit="10" stroke-linecap="round" stroke-linejoin="round"/>
<path d="M99.8408 125.785C99.8408 127.67 100.178 129.403 100.178 131.316" stroke="black" stroke-width="1.5" stroke-miterlimit="10" stroke-linecap="round" stroke-linejoin="round"/>
<path d="M97.6515 108.354C96.9907 106.381 100.96 101.65 102.873 101.65" stroke="black" stroke-width="1.5" stroke-miterlimit="10" stroke-linecap="round" stroke-linejoin="round"/>
<path d="M94.9558 104.164C93.9467 104.666 96.8672 103.698 96.977 103.661C98.1396 103.276 99.282 102.991 100.514 102.991" stroke="black" stroke-width="1.5" stroke-miterlimit="10" stroke-linecap="round" stroke-linejoin="round"/>
<path d="M96.6401 102.656C96.1007 103.729 96.3342 103.078 96.1348 104.667" stroke="black" stroke-width="1.5" stroke-miterlimit="10" stroke-linecap="round" stroke-linejoin="round"/>
<path d="M68.2861 44.1465C69.5058 37.3802 86.3363 33.2497 89.8279 41.2316" stroke="black" stroke-width="1.5" stroke-miterlimit="10" stroke-linecap="round" stroke-linejoin="round"/>
<path d="M13.7559 100.897C15.4026 101.225 16.8005 102.18 18.1967 103.106" stroke="black" stroke-width="1.5" stroke-miterlimit="10" stroke-linecap="round" stroke-linejoin="round"/>
<path d="M42.3999 130.724C42.3999 129.891 42.1001 133.342 42.1779 134.038C42.4741 136.692 47.2533 146.481 47.2533 146.088" stroke="black" stroke-width="1.5" stroke-miterlimit="10" stroke-linecap="round" stroke-linejoin="round"/>
</g>
<defs>
<clipPath id="clip0_340_50">
<rect width="168" height="151" fill="white"/>
</clipPath>
</defs>
</svg>
